<svg xmlns="http://www.w3.org/2000/svg" version="1.1" xmlns:xlink="http://www.w3.org/1999/xlink" xmlns:svgjs="http://svgjs.dev/svgjs" width="1000" height="1000" viewBox="0 0 1000 1000"><g transform="matrix(1,0,0,1,-0.14221556886212738,-0.14221556886229791)"><svg viewBox="0 0 334 334" data-background-color="#ffffff" preserveAspectRatio="xMidYMid meet" height="1000" width="1000" xmlns="http://www.w3.org/2000/svg" xmlns:xlink="http://www.w3.org/1999/xlink"><g id="tight-bounds" transform="matrix(1,0,0,1,0.04749999999998522,0.04750000000001364)"><svg viewBox="0 0 333.90454557049503 333.90454557049503" height="333.90454557049503" width="333.90454557049503"><g><svg></svg></g><g><svg viewBox="0 0 333.90454557049503 333.90454557049503" height="333.90454557049503" width="333.90454557049503"><g><path d="M0 166.952c0-92.205 74.747-166.952 166.952-166.952 92.205 0 166.952 74.747 166.953 166.952 0 92.205-74.747 166.952-166.953 166.953-92.205 0-166.952-74.747-166.952-166.953zM166.952 316.63c82.665 0 149.677-67.013 149.678-149.678 0-82.665-67.013-149.677-149.678-149.677-82.665 0-149.677 67.013-149.677 149.677 0 82.665 67.013 149.677 149.677 149.678z" data-fill-palette-color="tertiary" fill="#ff0000" stroke="transparent"></path><ellipse rx="160.27418187383762" ry="160.27418187383762" cx="166.95227278524752" cy="166.95227278524752" fill="#ff0000" stroke="transparent" stroke-width="0" fill-opacity="1" data-fill-palette-color="tertiary"></ellipse></g><g transform="matrix(1,0,0,1,93.80027817135516,71.17305217166897)"><svg viewBox="0 0 146.3039892277847 191.5584412271571" height="191.5584412271571" width="146.3039892277847"><g><svg viewBox="0 0 146.3039892277847 191.5584412271571" height="191.5584412271571" width="146.3039892277847"><g><svg viewBox="0 0 146.3039892277847 191.5584412271571" height="191.5584412271571" width="146.3039892277847"><g><svg viewBox="0 0 146.3039892277847 191.5584412271571" height="191.5584412271571" width="146.3039892277847"><g id="textblocktransform"><svg viewBox="0 0 146.3039892277847 191.5584412271571" height="191.5584412271571" width="146.3039892277847" id="textblock"><g><svg viewBox="0 0 146.3039892277847 191.5584412271571" height="191.5584412271571" width="146.3039892277847"><g transform="matrix(1,0,0,1,0,0)"><svg width="146.3039892277847" viewBox="3.9800000190734863 -32.66999816894531 25.40999984741211 33.279998779296875" height="191.5584412271571" data-palette-color="#ffffff"><path d="M22.71-12.82L22.71-32.59Q24.22-32.47 25.22-32.47L25.22-32.47 27.25-32.47Q28.27-32.47 29.39-32.67L29.39-32.67 29.39-12.48Q29.39-6.47 25.76-2.83L25.76-2.83Q22.31 0.61 17.11 0.61L17.11 0.61Q11.43 0.61 7.91-2.34L7.91-2.34Q3.98-5.66 3.98-11.91L3.98-11.91 3.98-32.59Q6.01-32.47 7.8-32.47 9.59-32.47 10.77-32.67L10.77-32.67 10.77-11.6Q10.77-8.52 12.65-6.81L12.65-6.81Q14.4-5.25 17.04-5.25L17.04-5.25Q20.95-5.25 22.24-9.25L22.24-9.25Q22.71-10.69 22.71-12.82L22.71-12.82Z" opacity="1" transform="matrix(1,0,0,1,0,0)" fill="#ffffff" class="wordmark-text-0" data-fill-palette-color="quaternary" id="text-0"></path></svg></g></svg></g></svg></g></svg></g><g></g></svg></g></svg></g></svg></g></svg></g><defs></defs></svg><rect width="333.90454557049503" height="333.90454557049503" fill="none" stroke="none" visibility="hidden"></rect></g></svg></g></svg>